<?xml version="1.0" encoding="utf-8"?>
<!-- Generator: Adobe Illustrator 27.6.1, SVG Export Plug-In . SVG Version: 6.00 Build 0)  -->
<svg version="1.1" id="Layer_1" xmlns="http://www.w3.org/2000/svg" xmlns:xlink="http://www.w3.org/1999/xlink" x="0px" y="0px"
	 viewBox="0 0 458.72 335.89" style="enable-background:new 0 0 458.72 335.89;" xml:space="preserve">
<style type="text/css">
	.st0{fill:#CE783E;}
	.st1{fill:#E8E7E6;}
</style>
<g>
	<g>
		<path class="st0" d="M100.18,70.79c2.1-6.91,0.55-14.73-4.74-20.38c-5.27-5.66-12.96-7.73-20.01-6.11
			c-2.09,6.91-0.56,14.73,4.73,20.38C85.45,70.34,93.13,72.41,100.18,70.79"/>
		<path class="st0" d="M98.51,46.98c4.99,5.34,7.18,12.71,6.06,19.83c4.47-3.68,7.41-9.2,7.62-15.44c0.26-7.74-3.7-14.64-9.84-18.47
			c-4.03,2.17-7.3,5.61-9.21,9.82C95.1,43.85,96.92,45.28,98.51,46.98"/>
		<path class="st0" d="M117.32,51.82c-0.26,7.3-3.91,14.06-9.74,18.3c5.77,0.56,11.74-1.26,16.32-5.53
			c5.66-5.28,7.72-12.97,6.1-20.02c-4.37-1.33-9.12-1.2-13.44,0.42C117.13,47.19,117.4,49.49,117.32,51.82"/>
		<path class="st1" d="M307.74,126.11l-6.93-0.54c-8.13-0.04-14.73-6.85-14.73-15.16c0-8.36,6.64-15.16,14.79-15.16
			c8.03,0,14.58,6.6,14.78,14.77l16.64-9.33l0.24-0.24c-4.17-13.85-16.79-23.95-31.66-23.95c-18.25,0-33.11,15.22-33.11,33.91
			c0,16.18,11.17,29.79,26.03,33.12l7.12,0.78c14.15,0.02,25.65,11.82,25.65,26.31c0,14.51-11.52,26.31-25.69,26.31
			c-13.95,0-25.32-11.47-25.65-25.68l-16.84,9.46l-0.32,0.31c4.6,19.85,22.04,34.66,42.81,34.66c24.26,0,44-20.22,44-45.07
			C344.87,148.18,328.75,129.5,307.74,126.11"/>
		<path class="st1" d="M211.6,87.28v18.39c-11.5-13.72-28.29-22.41-46.98-22.41c-34.59,0-62.73,29.71-62.73,66.22
			c0,36.5,28.15,66.2,62.73,66.2c18.69,0,35.48-8.67,46.98-22.4v20.3v0.63h18.31V76.49L211.6,87.28z M164.98,199.51
			c-25.88,0-45.27-22.49-45.27-50.13c0-27.65,19.39-50.14,45.27-50.14c25.87,0,46.93,22.49,46.93,50.14
			C211.91,177.02,190.85,199.51,164.98,199.51"/>
		<polygon class="st1" points="432.23,46.88 396.56,66.42 396.55,45.84 378.24,55.68 378.25,76.46 360.2,86.35 360.2,102.24 
			378.19,92.38 378.19,213.29 397.81,213.29 397.81,81.62 432.23,62.75 		"/>
		<polygon class="st1" points="102.54,76.49 46.79,106.99 46.79,76.49 27.22,86.71 27.22,212.14 46.79,212.14 46.79,122.87 
			102.54,92.37 		"/>
	</g>
	<polygon class="st1" points="42.13,265.36 34.18,265.36 34.18,278.75 27.49,278.75 27.49,247.73 34.18,247.73 34.18,259.4 
		42.13,259.4 42.13,247.73 48.83,247.73 48.83,278.75 42.13,278.75 	"/>
	<path class="st1" d="M89.71,274.71c-3.07,3.12-6.99,4.69-11.77,4.69c-4.78,0-8.7-1.56-11.77-4.69c-3.07-3.13-4.6-6.95-4.6-11.47
		c0-4.52,1.53-8.34,4.6-11.47c3.07-3.13,6.99-4.69,11.77-4.69c4.78,0,8.7,1.56,11.77,4.69c3.07,3.12,4.6,6.95,4.6,11.47
		C94.31,267.76,92.78,271.59,89.71,274.71 M70.99,270.58c1.81,1.9,4.13,2.85,6.95,2.85c2.82,0,5.14-0.95,6.96-2.85
		c1.81-1.9,2.72-4.35,2.72-7.34c0-3-0.91-5.44-2.72-7.34c-1.81-1.9-4.13-2.85-6.96-2.85c-2.82,0-5.14,0.95-6.95,2.85
		c-1.82,1.9-2.72,4.35-2.72,7.34C68.27,266.24,69.17,268.69,70.99,270.58"/>
	<path class="st1" d="M113.75,265.05v13.69h-6.7v-31.02h8.21c3.69,0,6.68,0.98,8.98,2.94c2.3,1.96,3.46,4.64,3.46,8.03
		c0,3.8-1.74,6.64-5.23,8.51l7.13,11.53h-7.52L113.75,265.05z M113.75,253.7v10.02h1.51c1.76,0,3.15-0.45,4.19-1.34
		c1.04-0.89,1.55-2.12,1.55-3.67c0-1.55-0.52-2.78-1.55-3.67c-1.04-0.89-2.43-1.34-4.19-1.34H113.75z"/>
	<polygon class="st1" points="137.6,247.73 155.44,247.73 155.44,253.7 149.86,253.7 149.86,278.75 143.17,278.75 143.17,253.7 
		137.6,253.7 	"/>
	<rect x="166.45" y="247.73" class="st1" width="6.7" height="31.02"/>
	<polygon class="st1" points="193.67,264.88 193.67,278.75 186.97,278.75 186.97,247.73 193.67,247.73 193.67,263.89 203.69,247.73 
		210.69,247.73 200.75,263.54 212.76,278.75 204.51,278.75 	"/>
	<path class="st1" d="M224.68,276.29c-1.9-2.07-2.85-4.81-2.85-8.21v-20.35h6.69v20.35c0,3.57,1.43,5.36,4.28,5.36
		c2.85,0,4.28-1.79,4.28-5.36v-20.35h6.69v20.35c0,3.4-0.95,6.13-2.85,8.21c-1.9,2.07-4.61,3.11-8.12,3.11
		C229.29,279.4,226.58,278.36,224.68,276.29"/>
	<polygon class="st1" points="257.38,247.73 264.08,247.73 264.08,272.79 272.89,272.79 272.89,278.75 257.38,278.75 	"/>
	<polygon class="st1" points="278.94,247.73 296.78,247.73 296.78,253.7 291.21,253.7 291.21,278.75 284.51,278.75 284.51,253.7 
		278.94,253.7 	"/>
	<path class="st1" d="M310.43,276.29c-1.9-2.07-2.85-4.81-2.85-8.21v-20.35h6.7v20.35c0,3.57,1.43,5.36,4.28,5.36
		c2.85,0,4.28-1.79,4.28-5.36v-20.35h6.7v20.35c0,3.4-0.95,6.13-2.85,8.21c-1.9,2.07-4.61,3.11-8.12,3.11
		C315.03,279.4,312.33,278.36,310.43,276.29"/>
	<path class="st1" d="M349.82,265.05v13.69h-6.7v-31.02h8.21c3.69,0,6.68,0.98,8.98,2.94c2.3,1.96,3.46,4.64,3.46,8.03
		c0,3.8-1.74,6.64-5.23,8.51l7.13,11.53h-7.52L349.82,265.05z M349.82,253.7v10.02h1.51c1.76,0,3.15-0.45,4.19-1.34
		c1.04-0.89,1.55-2.12,1.55-3.67c0-1.55-0.52-2.78-1.55-3.67c-1.04-0.89-2.43-1.34-4.19-1.34H349.82z"/>
	<path class="st1" d="M387.96,246.44l13.09,32.31h-6.87l-1.55-3.97h-9.37l-1.51,3.97h-6.78L387.96,246.44z M387.92,262.72
		l-2.59,6.74h5.23L387.92,262.72z"/>
	<rect x="27.49" y="298.94" class="st1" width="373.56" height="3.18"/>
</g>
</svg>
